<?xml version="1.0" encoding="UTF-8"?>
<svg xmlns="http://www.w3.org/2000/svg" viewBox="-4 -4 130 116">
  <defs>
    <style>
      .cls-1{fill:#00e785;}
      .cls-2{fill:#1d1d1b;}
    </style>
  </defs>
  <!-- Green chat bubble fill -->
  <path class="cls-1" d="M36.56,86.33h37.13l22.19,22.17v-22.17h9.48c11.31,0,20.56-9.25,20.56-20.56v-29.2c0-11.31-9.25-20.56-20.56-20.56H36.56c-11.31,0-20.56,9.25-20.56,20.56v29.2c0,11.31,9.25,20.56,20.56,20.56Z"/>
  <!-- Black chat bubble outline -->
  <path class="cls-2" d="M83.9,102.17l-23.86-23.84H24.56c-13.54,0-24.56-11.02-24.56-24.56V24.56C0,11.02,11.02,0,24.56,0H93.36c13.54,0,24.56,11.02,24.56,24.56v29.2c0,13.54-11.02,24.56-24.56,24.56h-9.48v-8h9.48c9.13,0,16.56-7.43,16.56-16.56V24.56c0-9.13-7.43-16.56-16.56-16.56H24.56c-9.13,0-16.56,7.43-16.56,16.56v29.2c0,9.13,7.43,16.56,16.56,16.56H63.35l20.62,20.6-.07,11.24Z"/>
</svg>
